<svg width="160" height="20" viewBox="0 0 160 20" fill="none" xmlns="http://www.w3.org/2000/svg">
<path d="M80.7444 1.03707C82.146 1.20929 83.4872 1.71489 84.6576 2.51231C85.828 3.30973 86.7943 4.37621 87.4769 5.62407C88.1596 6.87194 88.5392 8.26556 88.5845 9.69039C88.6298 11.1152 88.3396 12.5306 87.7376 13.8201C87.5807 11.9732 87.09 9.95451 85.9017 8.30313C84.768 6.74452 83.1035 5.6642 81.2284 5.26999C80.2012 4.91698 79.0871 4.91767 78.0603 5.27196C77.0335 5.62624 76.152 6.31415 75.5537 7.22805C75.6463 6.72646 75.7976 6.23774 76.0043 5.77214C76.959 3.59839 78.9785 2.05149 80.7444 1.03707ZM85.0839 8.89291C84.7865 8.4779 84.4414 8.10003 84.0557 7.76727C84.542 8.74036 84.6956 9.84855 84.4928 10.919C84.2899 11.9895 83.7419 12.9621 82.9341 13.6853C81.6557 15.1431 79.887 16.0702 77.9704 16.287C77.6866 16.3167 77.4013 16.3314 77.1159 16.3308C75.451 16.2883 73.8152 15.8801 72.3224 15.1344C73.1276 16.305 74.1964 17.266 75.441 17.9383C76.6857 18.6106 78.0706 18.9751 79.4819 19.0018C80.8932 19.0284 82.2907 18.7165 83.5594 18.0916C84.828 17.4668 85.9317 16.5468 86.7796 15.4074C86.7996 13.3718 86.4691 10.8105 85.0872 8.89291H85.0839ZM77.8703 15.2962C78.3759 15.244 78.8735 15.1309 79.3524 14.9592C78.2637 14.8916 77.228 14.4612 76.4076 13.7354C75.5872 13.0096 75.0286 12.0295 74.8193 10.9487C74.2266 9.12294 74.3217 7.1406 75.0864 5.3812C75.9109 3.51414 77.393 2.07845 78.9018 1C77.4954 1.12042 76.1372 1.57549 74.9385 2.32793C73.7399 3.08037 72.7348 4.10878 72.0056 5.32894C71.2765 6.54909 70.844 7.92628 70.7435 9.34771C70.6431 10.7691 70.8776 12.1944 71.4278 13.5066C73.187 14.5447 75.537 15.5287 77.8736 15.2794L77.8703 15.2962Z" fill="#00D7B0"/>
<path d="M0 10.0017C0 4.94643 3.58174 1.23926 8.50872 1.23926C12.738 1.23926 16.0093 3.88146 16.8539 7.95935H13.0752C12.4276 6.04173 10.7185 4.82847 8.58216 4.82847C5.76817 4.82847 3.74864 6.98874 3.74864 9.99829C3.74864 13.0078 5.75148 15.1681 8.58216 15.1681C9.59591 15.1957 10.5908 14.8878 11.4152 14.2916C12.2396 13.6953 12.8483 12.8433 13.1486 11.8654H16.8739C16.1028 16.041 12.7881 18.7573 8.50872 18.7573C3.58174 18.7438 0 15.0569 0 10.0017ZM18.336 1.50887H24.5615C28.2901 1.50887 30.4999 3.81406 30.4999 7.0157C30.4999 9.51636 29.1646 11.4812 26.7245 12.1855L31.1742 18.0833V18.4945H27.0149L22.0078 11.653V18.4945H18.336V1.50887ZM24.4413 9.51636C25.91 9.51636 26.798 8.71426 26.798 7.28194C26.798 5.84963 25.8867 5.0509 24.4179 5.0509H21.9912V9.51636H24.4413ZM35.6038 11.3935L29.849 1.91329V1.50213H33.8546L35.754 4.77792L37.423 7.73692L39.092 4.77792L40.9647 1.50213H45.0038V1.96384L39.2356 11.4003V18.4776H35.6038V11.3935ZM45.8683 1.49202H52.3074C55.8191 1.49202 58.1257 3.86798 58.1257 7.46057C58.1257 11.0532 55.8191 13.4055 52.3074 13.4055H49.5202V18.4608H45.8817L45.8683 1.49202ZM51.9369 10.0017C53.4991 10.0017 54.4138 9.03106 54.4138 7.50101C54.4138 5.97096 53.4991 5.00372 51.9369 5.00372H49.5335V10.0017H51.9369ZM62.7022 4.94643H58.2559V1.49202H70.827V4.94643H66.354V18.4641H62.7022V4.94643ZM89.6804 1.49202H92.5177L98.0456 9.62083L103.527 1.49202H106.314V18.4776H102.699V8.47835L98.9936 13.8436H97.0709L93.3456 8.45139V18.4742H89.6804V1.49202ZM107.512 18.0664L113.881 1.49202H116.932L123.305 18.0664V18.4776H119.493L118.411 15.4209H112.403L111.321 18.4776H107.522L107.512 18.0664ZM117.386 12.2664L115.383 6.77979L113.411 12.2664H117.386ZM125.398 4.94643H120.938V1.49202H133.509V4.94643H129.039V18.4641H125.398V4.94643ZM134.31 15.0906H136.954V4.81499H134.337V1.49202H143.206V4.81499H140.609V15.1041H143.253V18.4742H134.297L134.31 15.0906ZM143.126 10.0017C143.126 4.94643 146.708 1.23926 151.635 1.23926C155.867 1.23926 159.135 3.88146 159.98 7.95935H156.201C155.554 6.04173 153.865 4.82847 151.708 4.82847C148.894 4.82847 146.878 6.98874 146.878 9.99829C146.878 13.0078 148.881 15.1681 151.708 15.1681C152.722 15.1962 153.717 14.8886 154.542 14.2923C155.366 13.6959 155.975 12.8436 156.275 11.8654H160C159.232 16.041 155.914 18.7573 151.635 18.7573C146.708 18.7438 143.126 15.0569 143.126 10.0017Z" fill="white"/>
</svg>
