<svg aria-hidden="true" style="width: 0px; height: 0px; overflow: hidden; position: absolute;" xmlns="http://www.w3.org/2000/svg">
  <symbol id="burger" viewBox="0 0 24 24">
    <path d="M21.4,5.9H2.6c-0.2,0-0.3-0.1-0.3-0.3v-1c0-0.1,0.1-0.3,0.3-0.3h18.7c0.1,0,0.3,0.1,0.3,0.3v1C21.6,5.8,21.5,5.9,21.4,5.9z M21.4,12.8H2.6c-0.2,0-0.3-0.1-0.3-0.3v-1c0-0.1,0.1-0.3,0.3-0.3h18.7c0.1,0,0.3,0.1,0.3,0.3v1C21.6,12.7,21.5,12.8,21.4,12.8z M21.4,19.6H2.6c-0.2,0-0.3-0.1-0.3-0.3v-1c0-0.1,0.1-0.3,0.3-0.3h18.7c0.1,0,0.3,0.1,0.3,0.3v1C21.6,19.6,21.5,19.6,21.4,19.6z"/>
  </symbol>
  <symbol id="close" viewBox="0 0 24 24">
    <path d="M13.4,12l5.3,5.3c0.1,0.1,0.1,0.3,0,0.5l-0.9,0.9c-0.2,0.1-0.4,0.1-0.5,0l-0.9-0.9L12,13.4l-5.3,5.3c-0.1,0.1-0.3,0.1-0.5,0l-0.9-0.9c-0.1-0.2-0.1-0.4,0-0.5l5.3-5.3L5.2,6.7c-0.1-0.1-0.1-0.3,0-0.5l0.9-0.9c0.2-0.1,0.4-0.1,0.5,0l5.3,5.3l5.3-5.3c0.1-0.1,0.3-0.1,0.5,0l0.9,0.9c0.1,0.2,0.1,0.4,0,0.5l-0.9,0.9L13.4,12z"/>
  </symbol>
  <symbol id="vk" viewBox="0 0 24 24">
    <path d="M23,6.1c-0.3,1.5-3.4,5.8-3.4,5.8c-0.3,0.4-0.4,0.6,0,1.1c0.2,0.2,3.4,3.3,3.8,4.7c0.2,0.7-0.1,1.1-0.9,1.1h-2.5c-0.9,0-1.2-0.7-2.9-2.4c-1.5-1.5-2.1-1.7-2.5-1.7c-0.8,0-0.6,0.3-0.6,3.2c0,0.6-0.2,0.9-1.8,0.9c-2.6,0-5.6-1.6-7.7-4.6c-3.1-4.4-4-7.7-4-8.4c0-0.4,0.2-0.7,0.9-0.7h2.5c0.6,0,0.9,0.3,1.2,1c1.2,3.6,3.3,6.7,4.1,6.7c0.3,0,0.5-0.2,0.5-1V8.2c-0.1-1.7-1-1.8-1-2.4c0-0.3,0.2-0.6,0.6-0.6h3.9c0.6,0,0.7,0.3,0.7,0.9v5c0,0.5,0.3,0.7,0.4,0.7c0.3,0,0.6-0.2,1.2-0.8c1.8-2.1,3.1-5.2,3.1-5.2c0.2-0.4,0.5-0.7,1.1-0.7h2.5C23,5.2,23.1,5.6,23,6.1z"/>
  </symbol>
  <symbol id="tg" viewBox="0 0 24 24">
    <path d="M23.4,4.1L20,20.5c-0.3,1.1-1,1.4-2,0.9l-5.3-3.9l-2.5,2.5c-0.3,0.3-0.5,0.5-1.1,0.5L9.5,15l9.8-8.8c0.5-0.4-0.1-0.6-0.7-0.2L6.5,13.6L1.3,12c-1.1-0.4-1.2-1.1,0.2-1.7L22,2.5C22.9,2.1,23.7,2.7,23.4,4.1z"/>
  </symbol>
  <symbol id="yt" viewBox="0 0 24 24">
    <path d="M23.2,6.4c0.5,1.8,0.5,5.7,0.5,5.7s0,3.8-0.5,5.7c-0.3,1-1.1,1.8-2.1,2.1c-1.8,0.5-9.2,0.5-9.2,0.5s-7.3,0-9.2-0.5c-1-0.3-1.8-1-2.1-2.1C0.3,15.9,0.3,12,0.3,12s0-3.9,0.5-5.7c0.3-1,1.1-1.8,2.1-2.1C4.7,3.8,12,3.8,12,3.8s7.3,0,9.2,0.5C22.2,4.5,23,5.3,23.2,6.4z M9.6,15.5l6.1-3.5L9.6,8.6V15.5z"/>
  </symbol>
  <symbol id="chevron_down" viewBox="0 0 20 20">
    <path d="M16.8,6.8c0.2,0.1,0.2,0.4,0,0.5l-6.5,6.5c-0.2,0.2-0.4,0.2-0.5,0L3.2,7.3C3,7.2,3,6.9,3.2,6.8l0.6-0.6C4,6,4.2,6,4.3,6.2l5.7,5.7l5.7-5.7C15.8,6,16,6,16.2,6.2L16.8,6.8z"/>
  </symbol>
  <symbol id="chevron_left" viewBox="0 0 24 24">
    <path d="M16,20.5c-0.2,0.2-0.5,0.2-0.7,0l-8.2-8.2c-0.2-0.2-0.2-0.5,0-0.7l8.2-8.2c0.2-0.2,0.5-0.2,0.7,0l0.8,0.7c0.2,0.2,0.2,0.5,0,0.7L9.8,12l7.1,7.1c0.2,0.2,0.2,0.5,0,0.7L16,20.5z"/>
  </symbol>
  <symbol id="chevron_right" viewBox="0 0 24 24">
    <path d="M8,3.5c0.2-0.2,0.5-0.2,0.7,0l8.2,8.2c0.2,0.2,0.2,0.5,0,0.7l-8.2,8.2c-0.2,0.2-0.5,0.2-0.7,0l-0.8-0.7c-0.2-0.2-0.2-0.5,0-0.7l7.1-7.1L7.2,4.9C7,4.8,7,4.4,7.2,4.2L8,3.5z"/>
  </symbol>
  <symbol id="show_pass" viewBox="0 0 24 24">
    <path d="M23.1,19.6c0.1,0.1,0.2,0.3,0.2,0.5c0,0.1-0.1,0.3-0.1,0.4l-0.4,0.4c-0.1,0.1-0.3,0.2-0.4,0.2c-0.1,0-0.3,0-0.4-0.1L1,4.4C0.8,4.4,0.7,4.2,0.7,4c0-0.1,0.1-0.3,0.1-0.4l0.4-0.5C1.3,3.1,1.5,3,1.7,3C1.8,3,1.9,3.1,2,3.1L23.1,19.6z M11.2,8.2c0.2,0,0.6-0.1,0.8-0.1c2.1,0,3.8,1.7,3.9,3.8L11.2,8.2z M12.8,15.9c-0.2,0-0.6,0.1-0.8,0.1c-2.1,0-3.9-1.7-3.9-3.8L12.8,15.9z M12,6.9c-0.7,0-1.4,0.1-2.1,0.3L8.3,5.9c1.2-0.4,2.4-0.7,3.7-0.7c4.3,0,8.1,2.5,10,6.3c0.1,0.1,0.1,0.4,0.1,0.5c0,0.2-0.1,0.4-0.1,0.5c-0.4,0.8-1.2,2-1.9,2.6l-1.3-1c0.5-0.5,1.2-1.5,1.5-2.1C18.7,8.9,15.5,6.9,12,6.9z M12,17.1c0.7,0,1.4-0.1,2-0.2l1.6,1.3c-1.2,0.4-2.4,0.6-3.7,0.6c-4.3,0-8.1-2.5-10-6.2c-0.1-0.1-0.1-0.4-0.1-0.5c0-0.2,0-0.4,0.1-0.5c0.4-0.8,1.2-2,1.9-2.6l1.3,1C4.7,10.4,4,11.4,3.7,12C5.3,15.1,8.5,17.1,12,17.1z"/>
  </symbol>
  <symbol id="hide_pass" viewBox="0 0 24 24">
    <path d="M12,8.1c-0.4,0-0.7,0.1-1.1,0.2c0.2,0.3,0.3,0.6,0.3,1c0,1.1-0.9,2-2,2c-0.3,0-0.7-0.1-1-0.3c-0.6,2.1,0.6,4.3,2.7,4.9c2.1,0.6,4.3-0.6,4.9-2.7s-0.6-4.3-2.7-4.9C12.7,8.1,12.3,8.1,12,8.1z M22,11.5C20.1,7.8,16.3,5.2,12,5.2S3.8,7.8,1.9,11.5c-0.2,0.3-0.2,0.7,0,1c1.9,3.7,5.7,6.3,10.1,6.3s8.1-2.5,10.1-6.3C22.2,12.2,22.2,11.8,22,11.5z M12,17.1c-3.5,0-6.7-1.9-8.4-5.1C5.3,8.9,8.5,6.9,12,6.9s6.7,1.9,8.4,5.1C18.7,15.1,15.5,17.1,12,17.1z"/>
  </symbol>
</svg>
